<svg width="27" height="27" viewBox="0 0 27 27" fill="none" xmlns="http://www.w3.org/2000/svg">
<path d="M6.75005 4.04999H20.25C20.9661 4.04999 21.6529 4.33445 22.1592 4.8408C22.6656 5.34715 22.95 6.0339 22.95 6.74999V20.25C22.95 20.9661 22.6656 21.6528 22.1592 22.1592C21.6529 22.6655 20.9661 22.95 20.25 22.95H6.75005C6.03396 22.95 5.34721 22.6655 4.84086 22.1592C4.33451 21.6528 4.05005 20.9661 4.05005 20.25V6.74999C4.05005 6.0339 4.33451 5.34715 4.84086 4.8408C5.34721 4.33445 6.03396 4.04999 6.75005 4.04999V4.04999ZM8.77505 6.74999C8.23799 6.74999 7.72292 6.96334 7.34316 7.3431C6.9634 7.72286 6.75005 8.23792 6.75005 8.77499V11.475C6.75005 11.654 6.82116 11.8257 6.94775 11.9523C7.07434 12.0789 7.24603 12.15 7.42505 12.15C7.60407 12.15 7.77576 12.0789 7.90235 11.9523C8.02893 11.8257 8.10005 11.654 8.10005 11.475V8.77499C8.10005 8.59597 8.17116 8.42428 8.29775 8.29769C8.42434 8.1711 8.59603 8.09999 8.77505 8.09999H11.475C11.6541 8.09999 11.8258 8.02887 11.9523 7.90228C12.0789 7.7757 12.15 7.60401 12.15 7.42499C12.15 7.24597 12.0789 7.07428 11.9523 6.94769C11.8258 6.8211 11.6541 6.74999 11.475 6.74999H8.77505ZM15.525 6.74999C15.346 6.74999 15.1743 6.8211 15.0478 6.94769C14.9212 7.07428 14.85 7.24597 14.85 7.42499C14.85 7.60401 14.9212 7.7757 15.0478 7.90228C15.1743 8.02887 15.346 8.09999 15.525 8.09999H18.225C18.4041 8.09999 18.5758 8.1711 18.7023 8.29769C18.8289 8.42428 18.9 8.59597 18.9 8.77499V11.475C18.9 11.654 18.9712 11.8257 19.0978 11.9523C19.2243 12.0789 19.396 12.15 19.575 12.15C19.7541 12.15 19.9258 12.0789 20.0523 11.9523C20.1789 11.8257 20.25 11.654 20.25 11.475V8.77499C20.25 8.23792 20.0367 7.72286 19.6569 7.3431C19.2772 6.96334 18.7621 6.74999 18.225 6.74999H15.525ZM8.10005 15.525C8.10005 15.346 8.02893 15.1743 7.90235 15.0477C7.77576 14.9211 7.60407 14.85 7.42505 14.85C7.24603 14.85 7.07434 14.9211 6.94775 15.0477C6.82116 15.1743 6.75005 15.346 6.75005 15.525V18.225C6.75005 18.7621 6.9634 19.2771 7.34316 19.6569C7.72292 20.0366 8.23799 20.25 8.77505 20.25H11.475C11.6541 20.25 11.8258 20.1789 11.9523 20.0523C12.0789 19.9257 12.15 19.754 12.15 19.575C12.15 19.396 12.0789 19.2243 11.9523 19.0977C11.8258 18.9711 11.6541 18.9 11.475 18.9H8.77505C8.59603 18.9 8.42434 18.8289 8.29775 18.7023C8.17116 18.5757 8.10005 18.404 8.10005 18.225V15.525ZM20.25 15.525C20.25 15.346 20.1789 15.1743 20.0523 15.0477C19.9258 14.9211 19.7541 14.85 19.575 14.85C19.396 14.85 19.2243 14.9211 19.0978 15.0477C18.9712 15.1743 18.9 15.346 18.9 15.525V18.225C18.9 18.404 18.8289 18.5757 18.7023 18.7023C18.5758 18.8289 18.4041 18.9 18.225 18.9H15.525C15.346 18.9 15.1743 18.9711 15.0478 19.0977C14.9212 19.2243 14.85 19.396 14.85 19.575C14.85 19.754 14.9212 19.9257 15.0478 20.0523C15.1743 20.1789 15.346 20.25 15.525 20.25H18.225C18.7621 20.25 19.2772 20.0366 19.6569 19.6569C20.0367 19.2771 20.25 18.7621 20.25 18.225V15.525Z" fill="#7048D5"/>
</svg>

